HIERARCHY
ROOT Hips
{
	OFFSET -0.001795 -0.223333 0.028219
	CHANNELS 6 Xposition Yposition Zposition Zrotation Yrotation Xrotation 
	JOINT LeftUpLeg
	{
		OFFSET 0.069520 -0.091406 -0.006815
		CHANNELS 3 Zrotation Yrotation Xrotation
		JOINT LeftLeg
		{
			OFFSET 0.034277 -0.375199 -0.004496
			CHANNELS 3 Zrotation Yrotation Xrotation
			JOINT LeftFoot
			{
				OFFSET -0.013596 -0.397961 -0.043693
				CHANNELS 3 Zrotation Yrotation Xrotation
				JOINT LeftToe
				{
					OFFSET 0.026358 -0.055791 0.119288
					CHANNELS 3 Zrotation Yrotation Xrotation
					End Site
					{
						OFFSET 0.000000 0.000000 0.000000
					}
				}
			}
		}
	}
	JOINT RightUpLeg
	{
		OFFSET -0.067670 -0.090522 -0.004320
		CHANNELS 3 Zrotation Yrotation Xrotation
		JOINT RightLeg
		{
			OFFSET -0.038290 -0.382569 -0.008850
			CHANNELS 3 Zrotation Yrotation Xrotation
			JOINT RightFoot
			{
				OFFSET 0.015774 -0.398415 -0.042312
				CHANNELS 3 Zrotation Yrotation Xrotation
				JOINT RightToe
				{
					OFFSET -0.025372 -0.048144 0.123348
					CHANNELS 3 Zrotation Yrotation Xrotation
					End Site
					{
						OFFSET 0.000000 0.000000 0.000000
					}
				}
			}
		}
	}
	JOINT Spine
	{
		OFFSET -0.002533 0.108963 -0.026696
		CHANNELS 3 Zrotation Yrotation Xrotation
		JOINT Spine1
		{
			OFFSET 0.005487 0.135180 0.001092
			CHANNELS 3 Zrotation Yrotation Xrotation
			JOINT Spine2
			{
				OFFSET 0.001457 0.052922 0.025425
				CHANNELS 3 Zrotation Yrotation Xrotation
				JOINT Neck
				{
					OFFSET -0.002778 0.213870 -0.042857
					CHANNELS 3 Zrotation Yrotation Xrotation
					JOINT Head
					{
						OFFSET 0.005152 0.064970 0.051349
						CHANNELS 3 Zrotation Yrotation Xrotation
						End Site
						{
							OFFSET 0.000000 0.000000 0.000000
						}
					}
				}
				JOINT LeftShoulder
				{
					OFFSET 0.078845 0.121749 -0.034090
					CHANNELS 3 Zrotation Yrotation Xrotation
					JOINT LeftArm
					{
						OFFSET 0.090977 0.030469 -0.008868
						CHANNELS 3 Zrotation Yrotation Xrotation
						JOINT LeftForeArm
						{
							OFFSET 0.259612 -0.012772 -0.027456
							CHANNELS 3 Zrotation Yrotation Xrotation
							JOINT LeftHand
							{
								OFFSET 0.249234 0.008986 -0.001171
								CHANNELS 3 Zrotation Yrotation Xrotation
								End Site
								{
									OFFSET 0.000000 0.000000 0.000000
								}
							}
						}
					}
				}
				JOINT RightShoulder
				{
					OFFSET -0.081759 0.118833 -0.038615
					CHANNELS 3 Zrotation Yrotation Xrotation
					JOINT RightArm
					{
						OFFSET -0.096012 0.032551 -0.009143
						CHANNELS 3 Zrotation Yrotation Xrotation
						JOINT RightForeArm
						{
							OFFSET -0.253742 -0.013329 -0.021401
							CHANNELS 3 Zrotation Yrotation Xrotation
							JOINT RightHand
							{
								OFFSET -0.255298 0.007772 -0.005559
								CHANNELS 3 Zrotation Yrotation Xrotation
								End Site
								{
									OFFSET 0.000000 0.000000 0.000000
								}
							}
						}
					}
				}
			}
		}
	}
}
MOTION
Frames: 18
Frame Time: 0.050000
0.000000 0.945357 0.000000 -0.298396 4.588734 6.924389 3.606399 -0.307298 -2.958024 0.391566 0.154107 -5.314786 1.541747 6.510205 8.415138 0.000000 0.000000 0.000000 -1.987532 0.463110 -4.725458 -2.863743 0.042762 -4.211421 -0.255154 -4.079537 9.553284 0.000000 0.000000 0.000000 4.780471 0.388767 -7.091819 -0.956652 0.577517 -4.549598 -4.483143 3.944169 6.871459 8.853037 -5.546976 -6.903358 0.000000 0.000000 0.000000 -15.460318 2.550210 -4.076480 -53.663265 2.765083 -7.672254 -16.696391 -14.696653 2.439815 0.000000 0.000000 0.000000 14.153673 -9.145838 -4.607773 61.641443 -0.827581 -6.123652 17.266864 18.920595 3.567937 0.000000 0.000000 0.000000 
-0.000855 0.945173 0.000083 -0.388682 4.291256 7.789766 3.776216 -0.346503 -3.494402 0.534930 0.160599 -5.697636 2.389480 8.123063 9.024324 0.000000 0.000000 0.000000 -2.072096 0.572593 -6.032899 -2.799165 0.120835 -2.918553 0.245572 -2.981226 9.244063 0.000000 0.000000 0.000000 5.555648 0.488829 -8.243920 -1.252697 0.677803 -3.793926 -5.426388 4.382105 5.772141 9.615796 -6.206491 -6.308028 0.000000 0.000000 0.000000 -15.472575 3.292703 -4.535913 -52.140707 3.908897 -7.772908 -19.517083 -15.491086 2.896022 0.000000 0.000000 0.000000 13.445438 -10.405445 -5.135573 62.235136 -1.795441 -6.443667 19.375166 18.635917 3.871622 0.000000 0.000000 0.000000 
-0.001712 0.945548 0.000117 -0.078651 3.860421 7.920697 3.459654 -0.342583 -3.510189 0.886211 0.114122 -4.932711 2.164237 7.504162 8.344876 0.000000 0.000000 0.000000 -2.249548 0.559085 -5.886128 -3.258064 0.102764 -3.685904 0.260173 -3.235762 9.948083 0.000000 0.000000 0.000000 5.359451 0.496510 -8.386142 -0.870670 0.555162 -5.490197 -5.953581 4.140185 7.192607 9.473920 -6.139414 -6.422449 0.000000 0.000000 0.000000 -15.001276 3.017034 -4.200936 -52.027464 4.098043 -7.966173 -20.796863 -15.497870 3.082113 0.000000 0.000000 0.000000 13.428377 -9.416770 -4.654004 61.862198 -1.972772 -6.723337 20.865439 20.521595 4.616284 0.000000 0.000000 0.000000 
-0.002512 0.946179 0.000333 -0.073134 3.557082 8.079755 3.860855 -0.350937 -3.586657 0.494655 0.140942 -5.065836 2.456271 8.270507 9.360410 0.000000 0.000000 0.000000 -2.106155 0.598868 -6.330256 -3.317933 0.112044 -3.591238 0.552220 -2.742715 10.133238 0.000000 0.000000 0.000000 5.509368 0.530929 -8.722180 -1.297599 0.710244 -4.721009 -6.011973 3.516176 5.564590 9.603353 -6.428882 -5.560887 0.000000 0.000000 0.000000 -14.919144 3.738650 -4.417211 -51.401271 4.625924 -7.932275 -21.419976 -15.799804 3.239909 0.000000 0.000000 0.000000 12.133696 -9.579234 -4.723876 61.193313 -2.295385 -6.648065 24.781389 20.366883 5.255664 0.000000 0.000000 0.000000 
-0.003515 0.946423 0.000678 -0.053302 3.322320 8.202560 3.791981 -0.348690 -3.565603 0.576700 0.139828 -5.155967 2.129167 7.846203 9.872130 0.000000 0.000000 0.000000 -2.017301 0.590067 -6.182352 -3.753905 0.086593 -4.354078 0.430303 -3.163655 10.558809 0.000000 0.000000 0.000000 5.163664 0.548982 -9.101317 -0.838243 0.519521 -4.886698 -6.459250 3.064586 5.347663 9.511943 -6.303992 -5.833655 0.000000 0.000000 0.000000 -14.764242 3.909002 -4.383017 -49.627646 4.430169 -7.495053 -24.444116 -16.574053 3.835900 0.000000 0.000000 0.000000 11.261978 -9.905029 -4.840640 59.637505 -2.823683 -6.729193 30.931369 21.495773 6.827185 0.000000 0.000000 0.000000 
-0.004344 0.946420 0.001280 -0.287398 2.337171 8.132125 4.014739 -0.339866 -3.495128 0.795704 0.112608 -4.776139 3.004067 9.241467 9.980914 0.000000 0.000000 0.000000 -1.602298 0.598649 -6.177055 -4.056395 0.103190 -4.333317 0.639899 -2.874828 10.537350 0.000000 0.000000 0.000000 5.398003 0.606284 -9.469322 -1.157045 0.638761 -4.788383 -6.355542 3.139050 4.973782 9.884124 -6.811026 -4.960899 0.000000 0.000000 0.000000 -14.874349 4.000466 -4.368095 -47.982514 3.892338 -6.961748 -26.640108 -17.975123 4.536563 0.000000 0.000000 0.000000 10.647483 -9.752996 -4.748888 57.693718 -3.383667 -6.783543 36.834921 21.768260 8.168365 0.000000 0.000000 0.000000 
-0.004975 0.945982 0.001922 -0.387342 2.253464 7.919318 4.069255 -0.321176 -3.194051 0.875704 0.109714 -4.827579 2.970352 9.299350 10.481230 0.000000 0.000000 0.000000 -1.338515 0.569775 -5.804701 -4.264108 0.117824 -4.322475 0.707520 -2.673520 10.314351 0.000000 0.000000 0.000000 5.173025 0.627877 -9.798722 -1.158863 0.635802 -4.612104 -6.631563 2.451434 4.718410 10.295529 -7.004780 -5.509450 0.000000 0.000000 0.000000 -14.492562 3.903823 -4.128219 -46.608046 3.285384 -6.497180 -29.955723 -19.704250 5.606024 0.000000 0.000000 0.000000 9.833135 -9.934900 -4.795839 55.955330 -3.722070 -6.733907 42.526815 21.644182 9.323712 0.000000 0.000000 0.000000 
-0.005371 0.945755 0.002301 -0.657860 1.885964 7.865922 4.114044 -0.313189 -3.102829 1.136251 0.082124 -4.559766 3.390592 9.892218 10.197742 0.000000 0.000000 0.000000 -0.827352 0.590654 -5.962837 -4.721415 0.172707 -3.996723 0.909215 -2.127334 9.801013 0.000000 0.000000 0.000000 5.213023 0.662203 -10.103069 -1.276102 0.680395 -4.555086 -6.746782 2.138141 4.598076 10.274552 -7.099027 -5.124750 0.000000 0.000000 0.000000 -14.481954 3.605095 -3.901234 -45.423526 2.578344 -6.049781 -32.434289 -21.167980 6.556019 0.000000 0.000000 0.000000 9.617346 -9.838185 -4.767097 53.972062 -3.718725 -6.526721 47.338160 20.729934 9.916342 0.000000 0.000000 0.000000 
-0.005571 0.945513 0.002217 -0.864275 1.694592 7.777113 4.174575 -0.307995 -3.031104 1.308950 0.065832 -4.446963 3.566940 10.160445 10.173568 0.000000 0.000000 0.000000 -0.538698 0.589820 -5.913643 -4.963430 0.184288 -4.043076 1.061143 -1.792131 9.665865 0.000000 0.000000 0.000000 5.050645 0.670829 -10.255753 -1.145427 0.621703 -4.462397 -7.032077 1.666321 4.230209 10.444591 -7.227154 -5.127927 0.000000 0.000000 0.000000 -13.929267 3.032636 -3.450842 -44.808399 1.514657 -5.569568 -34.919645 -21.824501 7.302073 0.000000 0.000000 0.000000 8.932257 -9.848515 -4.720404 52.298480 -3.980204 -6.408067 51.010698 19.782683 10.143138 0.000000 0.000000 0.000000 
-0.005695 0.945419 0.001635 -1.082269 1.115139 7.849950 4.378116 -0.316341 -3.224840 1.275550 0.056335 -4.207020 4.026648 10.863415 10.149865 0.000000 0.000000 0.000000 -0.207584 0.618349 -6.168170 -5.281271 0.232051 -3.692948 1.389480 -1.007751 9.206842 0.000000 0.000000 0.000000 4.964964 0.684404 -10.364285 -1.107686 0.599075 -4.457143 -7.178515 1.134397 3.986522 10.492425 -7.258794 -5.205700 0.000000 0.000000 0.000000 -13.664354 2.738122 -3.138105 -44.560034 0.547658 -5.202000 -37.162964 -21.604122 7.752706 0.000000 0.000000 0.000000 8.561564 -9.703138 -4.666349 50.866238 -4.082911 -6.279940 53.994705 18.603169 9.949984 0.000000 0.000000 0.000000 
-0.005724 0.945543 0.000800 -1.274606 0.077619 7.791914 4.417320 -0.296774 -3.005287 1.327790 0.055041 -4.301210 4.277413 11.196760 10.189922 0.000000 0.000000 0.000000 0.064077 0.639042 -6.353438 -5.484962 0.258608 -3.470188 1.656356 -0.539794 9.091038 0.000000 0.000000 0.000000 4.898492 0.694778 -10.298975 -1.166085 0.613106 -4.516604 -7.287485 0.868873 3.976851 10.424053 -7.254382 -5.106054 0.000000 0.000000 0.000000 -13.304528 2.008123 -2.609252 -44.813397 -0.316608 -4.958124 -38.076962 -21.604906 8.034121 0.000000 0.000000 0.000000 8.394684 -9.662227 -4.683131 50.072841 -4.339662 -6.305831 55.882995 18.025375 9.807418 0.000000 0.000000 0.000000 
-0.005655 0.945749 0.000063 -1.344454 -0.733972 7.834156 4.418198 -0.287925 -2.945348 1.453071 0.044199 -4.289438 4.579646 11.635494 10.237632 0.000000 0.000000 0.000000 0.355972 0.673581 -6.665108 -5.697733 0.294811 -3.164308 1.965139 0.170509 8.720144 0.000000 0.000000 0.000000 4.666158 0.677248 -10.087946 -0.881963 0.484419 -4.539647 -7.477523 0.136783 3.714285 10.278094 -7.139095 -5.213382 0.000000 0.000000 0.000000 -13.164736 1.583990 -2.218176 -45.353965 -0.605084 -4.931626 -38.071774 -21.266464 8.032668 0.000000 0.000000 0.000000 7.772132 -9.548567 -4.611694 49.548745 -4.798865 -6.419574 56.976082 17.259804 9.268411 0.000000 0.000000 0.000000 
-0.005365 0.946009 -0.000405 -1.624707 -1.533879 7.818802 4.315967 -0.274063 -2.809231 1.807749 0.026535 -4.473717 4.725225 11.892187 10.772812 0.000000 0.000000 0.000000 0.618788 0.690853 -6.806789 -5.708117 0.297751 -3.070454 2.313711 0.782918 8.757356 0.000000 0.000000 0.000000 4.844469 0.677803 -9.818562 -0.941971 0.499811 -4.521515 -7.531971 -0.654509 3.621310 10.166324 -7.048897 -5.383258 0.000000 0.000000 0.000000 -13.205039 1.113857 -1.809877 -46.145155 -0.669010 -5.023252 -36.935063 -20.502582 7.639870 0.000000 0.000000 0.000000 7.691129 -9.413513 -4.623863 49.038727 -5.518666 -6.654340 57.654262 16.998276 8.914078 0.000000 0.000000 0.000000 
-0.004791 0.946068 -0.000673 -1.759974 -2.211087 7.652648 4.073274 -0.246650 -2.444903 2.161906 0.011133 -4.686985 5.051322 12.364315 10.725621 0.000000 0.000000 0.000000 0.769434 0.704664 -6.926393 -5.885166 0.329439 -2.815493 2.671084 1.581323 8.504374 0.000000 0.000000 0.000000 4.760940 0.663720 -9.558203 -0.696793 0.389423 -4.550276 -7.753633 -1.360953 3.677627 9.949226 -6.995611 -5.015279 0.000000 0.000000 0.000000 -13.147726 0.300563 -1.248953 -47.140906 -0.277570 -5.312732 -35.210698 -20.443027 7.381428 0.000000 0.000000 0.000000 7.012786 -9.078448 -4.422485 48.650463 -6.497455 -7.007070 58.433878 16.990623 8.767285 0.000000 0.000000 0.000000 
-0.003986 0.946132 -0.001030 -1.859739 -2.517704 7.676205 4.011928 -0.246151 -2.472788 2.297000 -0.001201 -4.648899 4.978635 12.229387 10.810360 0.000000 0.000000 0.000000 0.779475 0.739857 -7.254053 -6.026405 0.379243 -2.362934 2.782802 1.872774 8.332057 0.000000 0.000000 0.000000 4.923933 0.663942 -9.418976 -0.641274 0.361391 -4.479557 -8.064108 -2.008194 3.798084 9.926475 -6.983517 -5.115140 0.000000 0.000000 0.000000 -13.316765 -0.258218 -0.868866 -48.023863 -0.510701 -5.350280 -33.391467 -19.199947 6.641093 0.000000 0.000000 0.000000 6.623823 -9.235478 -4.452502 47.814591 -7.671868 -7.341243 58.756937 16.523708 8.328668 0.000000 0.000000 0.000000 
-0.003002 0.946152 -0.001724 -1.819275 -2.875164 7.576420 3.693424 -0.231037 -2.286216 2.478540 -0.001350 -4.888816 5.191418 12.545825 10.780684 0.000000 0.000000 0.000000 0.525658 0.740337 -7.304771 -5.965493 0.389060 -2.173758 3.103815 2.595357 8.190398 0.000000 0.000000 0.000000 4.875898 0.632737 -9.022064 -0.519932 0.309154 -4.730438 -8.290050 -2.441432 4.029775 9.943814 -7.022313 -5.118260 0.000000 0.000000 0.000000 -13.245284 -1.000890 -0.401331 -48.959850 -0.553812 -5.467424 -32.071077 -18.381464 6.158195 0.000000 0.000000 0.000000 5.888203 -9.048264 -4.256306 46.814447 -8.695103 -7.576510 58.938226 16.484253 8.173967 0.000000 0.000000 0.000000 
-0.002094 0.946453 -0.002523 -1.805263 -2.995088 7.668466 3.469020 -0.238384 -2.417335 2.636607 -0.015859 -4.829149 5.122394 12.406885 10.655520 0.000000 0.000000 0.000000 0.481002 0.780569 -7.690493 -6.130989 0.430638 -1.863428 3.225487 2.901300 8.089810 0.000000 0.000000 0.000000 4.964199 0.626036 -8.902801 -0.633268 0.353671 -4.599047 -8.418645 -2.847878 4.196947 10.058699 -7.045248 -5.547080 0.000000 0.000000 0.000000 -13.338490 -1.554926 -0.054650 -49.666902 -1.008135 -5.389917 -30.615941 -17.264239 5.559635 0.000000 0.000000 0.000000 5.305065 -8.919629 -4.104184 45.754676 -9.860767 -7.819412 59.006873 15.926013 7.714367 0.000000 0.000000 0.000000 
-0.001503 0.946536 -0.003034 -1.764535 -3.166434 7.691442 3.213445 -0.233152 -2.356735 2.865659 -0.023723 -4.965986 5.212441 12.574639 10.926449 0.000000 0.000000 0.000000 0.361161 0.771307 -7.629065 -6.110378 0.408742 -2.064835 3.443816 3.364601 8.067843 0.000000 0.000000 0.000000 4.920522 0.612863 -8.757732 -0.521101 0.308003 -4.876457 -8.719393 -2.971547 4.535315 10.184175 -7.142575 -5.640335 0.000000 0.000000 0.000000 -13.160693 -1.993766 0.207224 -50.300980 -1.351754 -5.348809 -29.643427 -16.601190 5.196530 0.000000 0.000000 0.000000 4.804113 -8.578848 -3.875031 45.073192 -10.290922 -7.866071 59.053509 15.502042 7.413354 0.000000 0.000000 0.000000 
